<?xml version="1.0" standalone="no"?>
<!DOCTYPE svg PUBLIC "-//W3C//DTD SVG 20010904//EN"
 "http://www.w3.org/TR/2001/REC-SVG-20010904/DTD/svg10.dtd">
<svg version="1.0" xmlns="http://www.w3.org/2000/svg"
 width="500.000000pt" height="500.000000pt" viewBox="0 0 500.000000 500.000000"
 preserveAspectRatio="xMidYMid meet">

<g transform="translate(0.000000,500.000000) scale(0.100000,-0.100000)"
fill="#000000" stroke="none">
<path d="M225 2811 c-3 -5 5 -11 17 -13 15 -2 22 -9 22 -21 -1 -12 5 -17 21
-17 17 0 25 -7 28 -22 3 -15 5 -10 6 13 1 28 6 38 21 42 11 3 20 11 19 19 0
10 -2 10 -6 1 -2 -7 -13 -13 -23 -13 -10 0 -20 -6 -23 -12 -3 -9 -13 -7 -35
10 -35 25 -38 26 -47 13z"/>
<path d="M1320 2769 c-17 -17 -29 -33 -27 -35 7 -7 37 7 37 17 0 5 7 9 15 9 8
0 15 9 15 20 0 26 -3 26 -40 -11z"/>
<path d="M230 2745 c0 -8 4 -15 10 -15 5 0 7 7 4 15 -4 8 -8 15 -10 15 -2 0
-4 -7 -4 -15z"/>
<path d="M201 2719 c-1 -9 -14 -26 -31 -39 -16 -13 -30 -29 -30 -35 0 -7 -6
-18 -14 -24 -15 -13 -31 -103 -24 -136 2 -13 11 -5 34 31 16 27 37 64 45 82 7
17 17 32 21 32 5 0 8 9 8 20 0 12 7 20 17 20 14 0 15 2 1 18 -9 9 -18 24 -21
32 -5 13 -6 13 -6 -1z"/>
<path d="M400 2720 c0 -7 14 -36 31 -64 18 -28 45 -76 61 -106 42 -78 48 -81
48 -24 0 66 -35 130 -94 172 -25 19 -46 28 -46 22z"/>
<path d="M780 2681 c-50 -16 -69 -35 -85 -87 -19 -59 -10 -112 25 -157 28 -35
109 -53 168 -38 60 17 52 27 -19 23 -59 -4 -62 -3 -95 33 -29 32 -34 45 -34
87 0 79 40 127 105 127 44 0 75 -17 75 -43 0 -9 5 -16 10 -16 13 0 13 57 1 64
-17 11 -126 16 -151 7z"/>
<path d="M2033 2678 c-24 -5 -43 -13 -43 -18 0 -5 -10 -18 -21 -29 -44 -40
-35 -159 14 -203 42 -37 137 -49 187 -23 29 15 40 35 20 35 -5 0 -10 -4 -10
-10 0 -6 -27 -10 -60 -10 -33 0 -60 4 -60 9 0 5 -9 13 -20 16 -13 4 -23 18
-27 36 -3 16 -9 29 -14 29 -5 0 -9 13 -9 29 0 35 39 111 57 111 7 0 13 5 13
10 0 15 82 12 103 -4 9 -7 17 -22 17 -32 0 -16 2 -17 10 -4 5 8 10 25 10 36 0
32 -77 43 -167 22z"/>
<path d="M4700 2681 l-34 -6 31 -32 c48 -49 85 -136 77 -181 -3 -20 -13 -43
-22 -49 -13 -11 -4 -13 54 -12 57 0 65 2 47 11 -20 9 -23 19 -23 63 0 34 6 61
18 76 28 39 42 63 48 82 4 9 10 17 15 17 5 0 9 7 9 15 0 8 -7 15 -15 15 -8 0
-15 -6 -15 -13 0 -18 -59 -107 -71 -107 -5 0 -17 16 -26 35 -9 19 -20 35 -25
35 -4 0 -8 6 -8 13 0 28 -24 43 -60 38z"/>
<path d="M296 2673 c5 -5 12 -12 16 -18 4 -6 8 -2 8 8 0 9 -7 17 -17 17 -9 0
-12 -3 -7 -7z"/>
<path d="M1003 2669 c15 -9 17 -26 17 -127 0 -79 -4 -122 -12 -130 -9 -9 11
-12 90 -12 l102 0 0 30 c0 17 -4 30 -10 30 -5 0 -10 -9 -10 -20 0 -18 -7 -20
-55 -20 l-55 0 0 124 c0 121 1 125 23 129 12 2 -7 5 -43 5 -49 1 -61 -1 -47
-9z"/>
<path d="M1253 2673 c21 -5 22 -14 18 -190 -1 -59 -4 -72 -18 -76 -10 -3 11
-5 47 -6 56 0 63 1 48 13 -15 11 -18 30 -18 129 0 100 2 117 18 126 13 8 1 10
-48 10 -36 -1 -57 -3 -47 -6z"/>
<path d="M1433 2669 c15 -9 17 -26 17 -126 0 -99 -3 -118 -17 -129 -16 -12
-13 -13 26 -14 38 0 42 2 28 13 -24 18 -28 181 -4 185 10 2 17 -1 17 -6 0 -19
158 -192 176 -192 11 0 14 28 14 134 0 120 2 135 18 139 9 3 -3 5 -28 6 -25 0
-40 -3 -34 -7 14 -9 25 -164 13 -183 -5 -8 -9 -9 -9 -3 0 6 -16 27 -35 47 -19
20 -35 39 -35 42 0 4 -16 22 -35 41 -19 18 -35 40 -35 49 0 11 -12 15 -47 15
-38 -1 -44 -3 -30 -11z"/>
<path d="M1783 2673 c15 -4 17 -19 17 -128 0 -108 -2 -125 -17 -134 -14 -8 -2
-10 47 -10 49 0 61 2 48 10 -16 9 -18 26 -18 134 0 109 2 124 18 128 9 3 -12
5 -48 5 -36 0 -57 -2 -47 -5z"/>
<path d="M2360 2655 c0 -14 -4 -25 -8 -25 -4 0 -19 -33 -32 -72 -14 -40 -28
-75 -32 -78 -3 -3 -10 -18 -13 -33 -4 -15 -13 -27 -21 -27 -8 0 -14 -4 -14
-10 0 -5 19 -10 43 -9 23 0 36 3 30 6 -14 5 -17 31 -7 57 4 12 20 16 54 16 27
0 55 -3 64 -6 19 -7 22 -60 4 -67 -7 -3 13 -6 44 -6 l57 -1 -22 38 c-12 20
-25 39 -29 40 -4 2 -8 12 -8 23 0 10 -13 47 -29 81 -16 35 -31 71 -34 81 -4 9
-16 17 -27 17 -15 0 -20 -7 -20 -25z m30 -84 c0 -9 3 -26 6 -38 6 -21 3 -23
-35 -23 -22 0 -41 2 -41 5 0 3 9 23 20 45 20 40 50 47 50 11z"/>
<path d="M2689 2671 c18 -11 27 -181 13 -233 l-10 -38 86 0 c126 0 182 35 203
126 10 45 9 55 -10 92 -12 23 -30 46 -40 52 -24 12 -262 14 -242 1z m190 -20
c36 -27 69 -141 41 -141 -5 0 -10 -10 -10 -23 0 -39 -43 -67 -100 -67 l-50 0
0 118 c0 65 3 122 7 125 14 14 89 6 112 -12z"/>
<path d="M3043 2673 c17 -4 18 -16 15 -139 l-3 -134 98 0 97 0 0 29 c0 36 -17
50 -22 19 -3 -20 -10 -23 -55 -26 l-53 -3 0 60 c0 60 1 61 28 61 31 0 47 -9
55 -30 3 -8 5 8 5 35 0 28 -2 42 -5 33 -3 -13 -15 -18 -44 -18 l-40 0 3 53 3
52 40 0 c32 0 42 -5 52 -25 l13 -25 0 33 0 32 -102 -1 c-57 -1 -95 -3 -85 -6z"/>
<path d="M3413 2669 c15 -9 17 -26 17 -123 0 -89 -3 -116 -15 -126 -24 -20
-18 -26 27 -22 36 4 40 6 25 17 -24 17 -25 185 -2 185 8 0 15 -6 15 -13 0 -8
13 -40 29 -73 17 -32 34 -71 40 -86 11 -29 41 -30 41 -1 0 9 10 32 23 51 12
20 29 55 37 79 24 68 35 57 38 -41 2 -75 0 -90 -15 -102 -16 -12 -11 -13 42
-13 46 0 56 2 43 10 -16 9 -18 26 -18 130 0 115 1 120 23 129 17 7 11 9 -31 9
-42 1 -54 -3 -58 -16 -3 -10 -12 -30 -20 -45 -8 -14 -14 -32 -14 -40 0 -7 -13
-33 -30 -58 l-29 -45 -13 35 c-6 19 -24 59 -40 89 -15 29 -28 59 -28 67 0 10
-14 14 -52 14 -41 -1 -49 -3 -35 -11z"/>
<path d="M3921 2622 c-12 -31 -28 -72 -34 -89 -7 -18 -15 -33 -19 -33 -5 0 -8
-11 -8 -25 0 -14 -9 -34 -20 -45 -28 -28 -26 -30 23 -29 23 0 36 3 30 6 -7 2
-13 20 -13 39 l0 34 65 0 65 0 0 -34 c0 -19 -6 -37 -12 -39 -7 -3 15 -6 50 -6
l62 -1 -20 20 c-11 11 -20 26 -20 33 0 7 -9 29 -20 50 -11 20 -20 44 -20 52 0
8 -4 15 -10 15 -5 0 -10 7 -10 15 0 29 -35 95 -50 95 -9 0 -25 -24 -39 -58z
m59 -102 c0 -5 -16 -10 -36 -10 -36 0 -36 1 -30 32 3 17 11 37 17 45 9 10 15
6 30 -22 11 -19 19 -39 19 -45z"/>
<path d="M4163 2673 c15 -4 17 -19 17 -128 0 -108 -2 -125 -17 -134 -14 -8 -2
-10 47 -10 36 1 57 3 48 6 -16 4 -18 19 -18 134 l0 129 26 0 c56 0 75 -72 29
-108 -23 -19 -35 -52 -17 -52 7 0 13 -10 42 -66 19 -38 28 -44 69 -44 l34 0
-26 25 c-13 14 -30 39 -37 55 -7 17 -16 30 -21 30 -17 0 -9 40 12 61 15 15 19
30 17 62 l-3 42 -110 2 c-60 0 -102 -1 -92 -4z"/>
<path d="M4468 2670 c21 -9 22 -14 22 -128 0 -78 -4 -122 -12 -130 -9 -9 11
-12 90 -12 l102 0 0 30 c0 17 -4 30 -10 30 -5 0 -10 -9 -10 -20 0 -18 -7 -20
-55 -20 l-55 0 0 124 c0 121 1 125 23 129 12 2 -9 5 -48 5 -51 1 -64 -2 -47
-8z"/>
<path d="M336 2624 c-6 -24 -2 -44 8 -33 9 11 15 59 7 59 -5 0 -12 -12 -15
-26z"/>
<path d="M305 2610 c3 -5 8 -10 11 -10 2 0 4 5 4 10 0 6 -5 10 -11 10 -5 0 -7
-4 -4 -10z"/>
<path d="M336 2509 c-11 -31 -10 -52 2 -56 6 -3 12 3 12 12 0 11 5 15 15 11
20 -7 19 -4 -5 24 -15 17 -21 19 -24 9z"/>
<path d="M292 2368 c-2 -15 -12 -18 -58 -18 -64 0 -70 -18 -13 -35 19 -5 40
-14 47 -18 8 -5 19 -4 28 4 13 10 17 10 23 0 6 -10 10 -8 15 5 6 15 8 15 24 0
11 -9 22 -12 28 -7 5 5 26 14 47 21 54 17 45 30 -22 30 -48 0 -60 3 -64 18 -3
15 -5 15 -11 -3 -5 -11 -10 -26 -12 -32 -7 -25 -23 -13 -27 20 -2 17 -5 24 -5
15z"/>
<path d="M3620 2275 c-9 -23 -21 -35 -34 -36 -17 -1 -18 -2 -3 -6 21 -6 22
-31 1 -54 -11 -12 -14 -27 -10 -44 7 -27 26 -25 26 3 0 9 8 37 16 62 23 62 33
110 25 110 -4 0 -13 -16 -21 -35z"/>
<path d="M4520 2278 c0 -25 3 -29 10 -18 13 20 13 50 0 50 -5 0 -10 -15 -10
-32z"/>
<path d="M4824 2278 c-6 -22 -18 -35 -34 -39 -16 -5 -19 -7 -7 -8 23 -1 22
-32 -3 -61 -20 -23 -20 -24 -3 -34 24 -13 26 -12 30 25 2 18 7 37 12 43 10 12
26 106 19 106 -3 0 -9 -14 -14 -32z"/>
<path d="M3137 2280 c-67 -53 -48 -172 27 -169 l31 1 -30 7 c-17 3 -35 16 -42
31 -22 43 7 122 51 140 15 6 17 9 5 9 -9 1 -28 -8 -42 -19z"/>
<path d="M3236 2292 c7 -4 14 -16 17 -27 4 -15 5 -14 6 8 1 20 -4 27 -16 27
-12 0 -14 -3 -7 -8z"/>
<path d="M3460 2286 c0 -9 5 -16 10 -16 6 0 10 4 10 9 0 6 -4 13 -10 16 -5 3
-10 -1 -10 -9z"/>
<path d="M4226 2275 c-7 -27 7 -63 31 -80 24 -18 12 -68 -17 -76 -21 -6 -21
-7 -5 -8 31 -2 65 27 65 54 0 14 -13 38 -30 55 -34 34 -39 66 -12 73 13 4 12
5 -4 6 -15 1 -24 -7 -28 -24z"/>
<path d="M4296 2285 c4 -8 10 -15 14 -15 4 0 10 7 14 15 4 10 -1 15 -14 15
-13 0 -18 -5 -14 -15z"/>
<path d="M330 2260 c0 -5 5 -10 10 -10 6 0 10 5 10 10 0 6 -4 10 -10 10 -5 0
-10 -4 -10 -10z"/>
<path d="M3290 2221 c0 -10 -3 -39 -6 -65 -6 -41 -5 -46 10 -40 12 4 14 9 7
14 -8 5 -7 15 4 36 19 38 19 74 0 74 -8 0 -15 -8 -15 -19z"/>
<path d="M3377 2234 c-4 -4 -7 -15 -7 -23 0 -9 -11 -29 -25 -44 -19 -20 -22
-27 -10 -27 8 0 15 -7 15 -16 0 -31 18 -3 25 39 4 23 12 45 19 49 8 5 8 10 0
18 -6 6 -13 7 -17 4z"/>
<path d="M3439 2226 c8 -10 7 -23 -5 -51 -16 -39 -12 -71 7 -60 6 4 8 13 5 21
-3 7 1 29 9 48 20 47 19 56 -6 56 -17 0 -19 -3 -10 -14z"/>
<path d="M3748 2233 c-9 -3 -15 -10 -12 -18 7 -16 -12 -54 -37 -76 -17 -15
-17 -16 11 -16 23 0 30 5 30 19 0 10 7 35 15 55 17 40 17 41 -7 36z"/>
<path d="M3887 2233 c-12 -12 -7 -50 8 -63 8 -7 15 -20 15 -28 0 -12 3 -13 12
-4 9 9 7 19 -10 42 -29 39 -28 54 3 48 14 -3 28 -1 31 3 6 10 -49 12 -59 2z"/>
<path d="M3996 2227 c2 -7 -2 -31 -10 -53 -8 -24 -11 -47 -6 -55 13 -20 18
-10 26 59 4 43 3 62 -4 62 -6 0 -9 -6 -6 -13z"/>
<path d="M4400 2233 c8 -3 18 -11 22 -16 7 -11 -8 -58 -22 -67 -4 -3 -3 -13 4
-22 19 -26 33 -8 40 52 l7 55 -33 2 c-18 0 -26 -1 -18 -4z"/>
<path d="M4509 2235 c-4 -5 -9 -27 -13 -48 -4 -21 -10 -45 -13 -53 -3 -8 0
-14 6 -14 6 0 11 10 11 23 0 13 5 28 11 34 6 6 9 23 7 39 -2 16 -6 25 -9 19z"/>
<path d="M4580 2205 c0 -19 -4 -35 -10 -35 -5 0 -10 -14 -10 -31 0 -34 24 -37
26 -3 1 10 5 38 9 62 5 29 4 42 -4 42 -6 0 -11 -16 -11 -35z"/>
<path d="M4074 2219 c-24 -33 -36 -68 -29 -88 8 -27 25 -17 25 15 0 14 5 34
11 45 13 25 8 47 -7 28z"/>
<path d="M3507 2191 c-9 -16 -17 -36 -17 -44 0 -20 26 -40 41 -31 8 5 7 9 -5
16 -20 11 -20 32 0 63 9 14 12 25 7 25 -5 0 -16 -13 -26 -29z"/>
<path d="M3656 2196 c-20 -32 -21 -72 -1 -80 18 -6 20 5 4 21 -8 8 -7 20 5 44
20 39 15 49 -8 15z"/>
<path d="M4347 2200 c-21 -25 -22 -76 -2 -83 8 -4 17 -2 20 3 4 6 1 10 -4 10
-14 0 -14 36 0 62 15 27 7 32 -14 8z"/>
<path d="M4642 2186 c-13 -34 -8 -66 10 -66 5 0 7 9 3 19 -3 11 -1 22 5 26 12
7 14 55 2 55 -4 0 -13 -15 -20 -34z"/>
<path d="M4723 2213 c-15 -5 -28 -66 -19 -89 3 -8 10 -12 16 -9 7 4 7 12 1 23
-6 11 -4 26 6 45 16 31 15 37 -4 30z"/>
<path d="M4180 2148 c0 -18 5 -28 15 -28 19 0 19 11 0 36 -14 18 -14 18 -15
-8z"/>
</g>
</svg>
